<svg xmlns="http://www.w3.org/2000/svg" version="1.1" xmlns:xlink="http://www.w3.org/1999/xlink" xmlns:svgjs="http://svgjs.dev/svgjs" width="2000" height="1500" viewBox="0 0 2000 1500"><rect width="2000" height="1500" fill="#ffffff"></rect><g transform="matrix(0.75,0,0,0.75,249.09154779283585,575.3119678883143)"><svg viewBox="0 0 396 92" data-background-color="#ffffff" preserveAspectRatio="xMidYMid meet" height="464" width="2000" xmlns="http://www.w3.org/2000/svg" xmlns:xlink="http://www.w3.org/1999/xlink"><g id="tight-bounds" transform="matrix(1,0,0,1,0.24008861730862918,0.18189354676749758)"><svg viewBox="0 0 395.52 91.63616972967185" height="91.63616972967185" width="395.52"><g><svg viewBox="0 0 395.52 91.63616972967185" height="91.63616972967185" width="395.52"><g><svg viewBox="0 0 395.52 91.63616972967185" height="91.63616972967185" width="395.52"><g id="textblocktransform"><svg viewBox="0 0 395.52 91.63616972967185" height="91.63616972967185" width="395.52" id="textblock"><g><svg viewBox="0 0 395.52 91.63616972967185" height="91.63616972967185" width="395.52"><path d="M394.594 19.654C392.735 10.142 387.435 7.498 387.435 7.498 371.165-2.299 350.86-0.187 332.619 1.22 300.414 1.277 268.339 3.37 236.208 4.492 168.767 4.664 100.749 1.848 33.643 8.792 27.339 10.922-6.54 9.21 1.121 20.872 3.129 25.723 10.456 31.106 10.232 35.558 11.236 36.338 12.631 34.55 13.226 35.672 15.309 38.697 18.711 37.27 21.501 39.058 17.614 43.833 20.403 47.809 23.062 51.975 18.377 53.06 12.371 52.546 9.675 56.141 9.396 58.748 7.89 58.253 6.235 58.139 5.026 58.063 2.59 58.348 2.999 59.166 4.394 61.963-1.594 63.58 2.162 66.319-0.422 69.287 3.948 71.855 3.353 75.07 3.278 75.717 3.687 76.268 4.338 76.421 7.22 77.239 3.018 78.837 3.464 80.568 33.029 92.4 65.104 84.22 95.394 89.661 103.259 85.856 97.346 91.012 100.489 90.213 102.943 89.281 104.728 93.142 107.499 90.955 107.927 90.327 107.276 88.843 108.8 89.128 109.6 89.281 110.307 89.243 110.418 88.367 110.586 87.055 109.117 87.873 108.726 87.188 112.947 83.726 111.906 91.963 115.866 91.621 115.68 90.612 114.528 89.166 116.889 89.357 119.232 87.911 119.306 86.712 121.389 89.965 121.463 90.669 121.835 91.164 122.43 91.506 128.938 87.968 135.409 92.762 142.233 91.164 146.417 89.414 150.433 92.115 154.672 91.449 156.16 90.917 157.666 89.965 159.098 91.563 176.632 91.906 195.319 90.479 211.943 91.621 256.364 89.49 303.836 92.496 350.674 89.68 361.719 88.596 373.192 87.055 383.958 85.818 383.958 85.818 392.679 82.432 392.679 67.213S394.538 53.897 394.817 41.779C395.096 29.661 396.398 29.166 394.538 19.654Z" opacity="1" fill="#eea041" data-fill-palette-color="tertiary"></path><g transform="matrix(1,0,0,1,55.76832,26.230666666666668)"><svg width="283.98335999999995" viewBox="0.4 -38.25 311.32000000000005 42.95" height="39.17483639633852" data-palette-color="#ffffff"><path d="M35-38.05L35-38.05Q37.35-38.05 38.73-36.68 40.1-35.3 40.1-33.2L40.1-33.2Q40.1-29.4 37.4-27 34.7-24.6 30.25-22.5L30.25-22.5Q26.65-13.2 21.65 0L21.65 0 13.35 0Q11.65-23.8 11.33-27.68 11-31.55 10.63-32.25 10.25-32.95 9.2-32.95L9.2-32.95Q6.55-32.95 3.75-23.6L3.75-23.6Q1.35-24.75 0.4-25.3L0.4-25.3Q2.95-33.55 6.2-36.35L6.2-36.35Q8.4-38.25 11.45-38.25L11.45-38.25Q14.2-38.25 15.7-36.45 17.2-34.65 17.7-29.45L17.7-29.45Q17.95-26.7 18.43-18.68 18.9-10.65 19.1-8.05L19.1-8.05 19.4-8.05 27.05-29.3Q28.7-33.95 29.85-35.45L29.85-35.45Q31.75-38.05 35-38.05ZM36.7-31.75L36.7-31.75Q36.7-32.4 36.3-32.8 35.9-33.2 35.23-33.2 34.55-33.2 34.08-32.15 33.6-31.1 32-27.05L32-27.05Q36.7-29.5 36.7-31.75ZM48.4-24.05L48.4-24.05Q53-24.05 56.07-21.1 59.15-18.15 59.15-13.9L59.15-13.9Q59.15-7.45 55.37-3.58 51.6 0.3 46.25 0.3 40.9 0.3 37.77-2.75 34.65-5.8 34.65-10.3L34.65-10.3Q34.65-16.6 38.5-20.3L38.5-20.3Q42.4-24.05 48.4-24.05ZM47.42-20Q45.05-20 43.45-17.3 41.85-14.6 41.7-10.5L41.7-10.5Q41.7-7.6 42.87-5.7 44.05-3.8 46.45-3.8 48.85-3.8 50.47-6.45 52.1-9.1 52.1-12.5 52.1-15.9 50.95-17.9L50.95-17.9Q49.8-20 47.42-20ZM76.95-16.95L76.95-16.95Q76.95-20.2 74.05-20.2L74.05-20.2Q71.9-20.2 70.2-17.75L70.2-17.75Q68.4-15.1 68.4-11.55 68.4-8 69.97-6.08 71.55-4.15 74.3-4.15L74.3-4.15Q77.59-4.15 81.27-6.85 84.95-9.55 87.2-13.55L87.2-13.55Q88.2-12.8 89.15-10.8L89.15-10.8Q87.7-7.9 83.75-4.3L83.75-4.3Q81.7-2.4 78.65-1.1L78.65-1.1Q75.34 0.3 72.05 0.3L72.05 0.3Q67.59 0.3 64.52-2.75 61.45-5.8 61.45-10.7L61.45-10.7Q61.45-16.65 65.45-20.35 69.45-24.05 74.4-24.05L74.4-24.05Q78.25-24.05 80.5-22.45 82.75-20.85 82.75-18.25L82.75-18.25Q82.75-16.55 81.55-15.3L81.55-15.3Q79.34-13.1 76.2-13.1L76.2-13.1Q76.95-15.6 76.95-16.95ZM106.99 0.25L106.99 0.25Q102.39 0.25 100.89-2.95L100.89-2.95Q98.29 0.3 94.22 0.3 90.14 0.3 87.37-2.45 84.59-5.2 84.59-9.7L84.59-9.7Q84.59-16.25 88.44-20.15 92.29-24.05 98.19-24.05L98.19-24.05Q98.34-24.05 98.49-24.05L98.49-24.05Q100.99-24.05 103.09-23.2L103.09-23.2Q104.44-24.05 106.37-24.05 108.29-24.05 109.14-23.55L109.14-23.55Q108.69-19.85 108.19-16.28 107.69-12.7 107.49-11.2L107.49-11.2Q107.04-7.8 107.04-6.3L107.04-6.3Q107.04-4.3 108.64-4.3L108.64-4.3Q109.89-4.3 111.29-5.98 112.69-7.65 113.74-11.25L113.74-11.25Q115.19-9.95 115.74-8.35L115.74-8.35Q114.29-3.6 111.84-1.68 109.39 0.25 106.99 0.25ZM98.94-20.15L98.94-20.15Q95.74-20.15 93.87-17.73 91.99-15.3 91.64-10.5L91.64-10.5Q91.59-10.05 91.59-9.65L91.59-9.65Q91.59-7.2 92.77-5.75 93.94-4.3 95.79-4.3L95.79-4.3Q98.94-4.3 100.54-8.75L100.54-8.75 101.74-19.55Q100.29-20.15 98.94-20.15ZM123.44-34.8L123.44-34.8Q123.44-34.5 122.09-24.05L122.09-24.05 129.44-24.05 129.44-20.2 121.59-20.2 121.44-18.95Q127.29-14.05 127.29-8.25L127.29-8.25Q127.29-3.7 124.97-1.7 122.64 0.3 119.39 0.3 116.14 0.3 114.64-1.43 113.14-3.15 113.14-5.6L113.14-5.6Q113.14-6.15 113.24-6.8L113.24-6.8 114.79-20.1 114.59-20.2 110.54-20.2Q110.49-20.7 110.49-21.83 110.49-22.95 110.94-24.05L110.94-24.05 115.24-24.05 116.84-37.65Q117.89-38.05 119.64-38.05L119.64-38.05Q123.44-38.05 123.44-34.8ZM123.94-8.3L123.94-8.3Q123.94-11.75 120.94-15.1L120.94-15.1Q120.04-7.65 120.04-6.5L120.04-6.5Q120.04-4.25 121.49-4.25L121.49-4.25Q122.54-4.25 123.24-5.23 123.94-6.2 123.94-8.3ZM133.14-36.83Q134.29-38 135.94-38 137.59-38 138.76-36.83 139.94-35.65 139.94-34 139.94-32.35 138.76-31.2 137.59-30.05 135.94-30.05 134.29-30.05 133.14-31.2 131.99-32.35 131.99-34 131.99-35.65 133.14-36.83ZM131.09-22.15Q131.59-23.05 132.99-23.53 134.39-24 135.76-24 137.14-24 138.19-23.65L138.19-23.65Q136.24-8.6 136.24-8.45L136.24-8.45Q135.99-7.45 135.99-6.78 135.99-6.1 136.09-5.6L136.09-5.6Q136.29-4.3 137.91-4.3 139.54-4.3 140.91-6.43 142.29-8.55 142.99-11.25L142.99-11.25Q143.34-11.05 144.09-10.05 144.84-9.05 144.99-8.55L144.99-8.55Q143.99-4.55 141.59-2.1L141.59-2.1Q139.19 0.35 135.84 0.35 132.49 0.35 130.86-1.3 129.24-2.95 129.24-5.55L129.24-5.55Q129.24-6.1 129.29-6.7L129.29-6.7 131.09-22.15ZM153.99-24.05L153.99-24.05Q158.59-24.05 161.66-21.1 164.74-18.15 164.74-13.9L164.74-13.9Q164.74-7.45 160.96-3.58 157.19 0.3 151.84 0.3 146.49 0.3 143.36-2.75 140.24-5.8 140.24-10.3L140.24-10.3Q140.24-16.6 144.09-20.3L144.09-20.3Q147.99-24.05 153.99-24.05ZM153.01-20Q150.64-20 149.04-17.3 147.44-14.6 147.29-10.5L147.29-10.5Q147.29-7.6 148.46-5.7 149.64-3.8 152.04-3.8 154.44-3.8 156.06-6.45 157.69-9.1 157.69-12.5 157.69-15.9 156.54-17.9L156.54-17.9Q155.39-20 153.01-20ZM181.13-5.6L181.13-5.6 182.33-16.75Q182.33-18.1 181.63-19 180.93-19.9 179.31-19.9 177.68-19.9 176.56-18.48 175.43-17.05 175.13-14.9L175.13-14.9Q173.33-1.2 173.23 0L173.23 0 166.48 0 169.23-23.55Q171.33-24.1 172.43-24.1L172.43-24.1Q175.78-24.1 175.93-21.65L175.93-21.65Q178.38-24.05 181.81-24.05 185.23-24.05 187.18-22.35 189.13-20.65 189.13-18.05L189.13-18.05Q189.13-17.35 188.83-15.4L188.83-15.4Q187.68-7.8 187.68-6.55L187.68-6.55Q187.68-4.25 189.23-4.25L189.23-4.25Q192.63-4.25 194.38-11.35L194.38-11.35Q196.08-9.55 196.43-8.5L196.43-8.5Q193.78 0.3 187.23 0.3L187.23 0.3Q184.13 0.3 182.63-1.6 181.13-3.5 181.13-5.6ZM226.18-38.05L226.18-38.05Q228.53-38.05 229.91-36.68 231.28-35.3 231.28-33.2L231.28-33.2Q231.28-29.4 228.58-27 225.88-24.6 221.43-22.5L221.43-22.5Q217.83-13.2 212.83 0L212.83 0 204.53 0Q202.83-23.8 202.5-27.68 202.18-31.55 201.81-32.25 201.43-32.95 200.38-32.95L200.38-32.95Q197.73-32.95 194.93-23.6L194.93-23.6Q192.53-24.75 191.58-25.3L191.58-25.3Q194.13-33.55 197.38-36.35L197.38-36.35Q199.58-38.25 202.63-38.25L202.63-38.25Q205.38-38.25 206.88-36.45 208.38-34.65 208.88-29.45L208.88-29.45Q209.13-26.7 209.61-18.68 210.08-10.65 210.28-8.05L210.28-8.05 210.58-8.05 218.23-29.3Q219.88-33.95 221.03-35.45L221.03-35.45Q222.93-38.05 226.18-38.05ZM227.88-31.75L227.88-31.75Q227.88-32.4 227.48-32.8 227.08-33.2 226.41-33.2 225.73-33.2 225.25-32.15 224.78-31.1 223.18-27.05L223.18-27.05Q227.88-29.5 227.88-31.75ZM230.28-36.83Q231.43-38 233.08-38 234.73-38 235.9-36.83 237.08-35.65 237.08-34 237.08-32.35 235.9-31.2 234.73-30.05 233.08-30.05 231.43-30.05 230.28-31.2 229.13-32.35 229.13-34 229.13-35.65 230.28-36.83ZM228.23-22.15Q228.73-23.05 230.13-23.53 231.53-24 232.9-24 234.28-24 235.33-23.65L235.33-23.65Q233.38-8.6 233.38-8.45L233.38-8.45Q233.13-7.45 233.13-6.78 233.13-6.1 233.23-5.6L233.23-5.6Q233.43-4.3 235.05-4.3 236.68-4.3 238.05-6.43 239.43-8.55 240.13-11.25L240.13-11.25Q240.48-11.05 241.23-10.05 241.98-9.05 242.13-8.55L242.13-8.55Q241.13-4.55 238.73-2.1L238.73-2.1Q236.33 0.35 232.98 0.35 229.63 0.35 228-1.3 226.38-2.95 226.38-5.55L226.38-5.55Q226.38-6.1 226.43-6.7L226.43-6.7 228.23-22.15ZM252.7-24.1Q256.28-24.1 258.88-21.15 261.48-18.2 261.48-14.25L261.48-14.25Q261.48-13.7 261.43-13.1L261.43-13.1Q260.88-6.55 257.03-3.13 253.18 0.3 246.98 0.3L246.98 0.3Q244.48 0.2 242.63-0.6 240.78-1.4 239.88-2.6L239.88-2.6Q238.18-4.8 238.18-6.53 238.18-8.25 238.68-12.1L238.68-12.1Q239.73-20 241.68-37.65L241.68-37.65Q242.73-38.05 244.48-38.05L244.48-38.05Q248.48-38.05 248.48-35.75L248.48-35.75 246.78-22.45Q249.13-24.1 252.7-24.1ZM244.93-6.88Q244.93-5.7 245.8-4.93 246.68-4.15 248.23-4.15L248.23-4.15Q250.78-4.15 252.43-6.5L252.43-6.5Q254.43-9.35 254.43-13.9L254.43-13.9Q254.43-16.1 253.43-17.8 252.43-19.5 250.33-19.5L250.33-19.5Q247.48-19.5 245.98-16.1L245.98-16.1 245.58-13.1Q244.93-8.05 244.93-6.88ZM272.92-11.2Q276.02-11.85 277.55-13.7 279.07-15.55 279.07-17.28 279.07-19 278.15-19.63 277.22-20.25 276.12-20.25L276.12-20.25Q273.77-20.25 272-17.63 270.22-15 270.22-11.38 270.22-7.75 271.95-5.98 273.67-4.2 276.22-4.2L276.22-4.2Q279.97-4.2 283.42-6.8 286.87-9.4 289.02-13.6L289.02-13.6Q290.12-12.55 291.02-11L291.02-11Q289.37-7.25 285.17-3.65L285.17-3.65Q283.07-1.9 280.2-0.8 277.32 0.3 274.27 0.3L274.27 0.3Q269.27 0.3 266.37-2.75L266.37-2.75Q263.27-6.05 263.27-11.2 263.27-16.35 267.15-20.2 271.02-24.05 276.42-24.05L276.42-24.05Q280.27-24.05 282.67-22.38 285.07-20.7 285.12-17.85L285.12-17.85Q285.12-14 282.05-11.6 278.97-9.2 273.62-8.25L273.62-8.25 272.92-11.2ZM307.77-15.3L307.77-15.3Q311.72-12.4 311.72-8.45 311.72-4.5 308.62-2.1 305.52 0.3 300.82 0.3L300.82 0.3Q297.77 0.3 295.75-1.23 293.72-2.75 293.72-5 293.72-7.25 295.22-8.58 296.72-9.9 298.97-10.2L298.97-10.2Q297.92-8.7 297.92-7.33 297.92-5.95 298.87-5.1L298.87-5.1Q299.82-4.25 301.27-4.25 302.72-4.25 303.67-5.33 304.62-6.4 304.62-7.8L304.62-7.8Q304.62-10.1 302.47-11.9L302.47-11.9Q301.17-12.95 299.67-13.88 298.17-14.8 298.07-14.85L298.07-14.85Q297.87-15 297.67-15.1L297.67-15.1Q296.77-14.05 295.07-12.23 293.37-10.4 292.37-9.3L292.37-9.3Q289.57-6.25 289.22-4.2L289.22-4.2Q289.12-3.8 289.12-2.68 289.12-1.55 289.8-0.35 290.47 0.85 291.42 1.45 292.37 2.05 293.3 2.43 294.22 2.8 294.9 2.95 295.57 3.1 295.57 3.15L295.57 3.15Q295.57 3.5 294.47 3.95L294.47 3.95Q292.42 4.7 290.2 4.7 287.97 4.7 285.87 3.1L285.87 3.1Q283.02 0.9 283.02-2.75L283.02-2.75Q283.02-5 284.17-7.2L284.17-7.2Q286.22-11.1 293.77-17.9L293.77-17.9Q291.92-19.75 291.92-21.85 291.92-23.95 293.5-25.4 295.07-26.85 297.22-26.85L297.22-26.85Q299.17-26.85 300.62-25.3L300.62-25.3Q301.57-24.25 301.57-22.65 301.57-21.05 300.52-19.05L300.52-19.05Q305.87-16.65 307.77-15.3ZM296.92-20.95L296.92-20.95Q298.12-22.2 298.12-22.75L298.12-22.75Q298.12-24 297.02-24.1L297.02-24.1Q295.77-24.1 295.77-22.7L295.77-22.7Q295.77-21.85 296.92-20.95Z" opacity="1" transform="matrix(1,0,0,1,0,0)" fill="#ffffff" class="wordmark-text-0" data-fill-palette-color="quaternary" id="text-0"></path></svg></g></svg></g></svg></g></svg></g><g></g></svg></g><defs></defs></svg><rect width="395.52" height="91.63616972967185" fill="none" stroke="none" visibility="hidden"></rect></g></svg></g></svg>